<?xml version="1.0" encoding="iso-8859-1"?>
<!-- Uploaded to: SVG Repo, www.svgrepo.com, Generator: SVG Repo Mixer Tools -->
<svg height="800px" width="800px" version="1.1" id="Layer_1" xmlns="http://www.w3.org/2000/svg" xmlns:xlink="http://www.w3.org/1999/xlink" 
	 viewBox="0 0 512.005 512.005" xml:space="preserve">
<g>
	<circle style="fill:#C9C9C9;" cx="136.483" cy="54.936" r="54.936"/>
	<path style="fill:#C9C9C9;" d="M231.251,231.656c0,0,0,2.568,0-48.624s-55.872-52.128-55.872-52.128H97.603
		c0,0-55.872,0.624-55.872,52.128c0,51.192,0,48.624,0,48.624H231.251z"/>
</g>
<g>
	<circle style="fill:#E21B1B;" cx="375.515" cy="54.936" r="54.936"/>
	<path style="fill:#E21B1B;" d="M470.275,231.656c0,0,0,2.568,0-48.624s-55.872-52.128-55.872-52.128h-77.776
		c0,0-55.872,0.624-55.872,52.128c0,51.192,0,48.624,0,48.624H470.275z"/>
	<circle style="fill:#E21B1B;" cx="136.483" cy="335.256" r="54.936"/>
	<path style="fill:#E21B1B;" d="M231.251,511.976c0,0,0,2.568,0-48.624s-55.872-52.128-55.872-52.128H97.603
		c0,0-55.872,0.624-55.872,52.128c0,51.192,0,48.624,0,48.624H231.251z"/>
	<circle style="fill:#E21B1B;" cx="375.515" cy="335.256" r="54.936"/>
	<path style="fill:#E21B1B;" d="M470.275,511.976c0,0,0,2.568,0-48.624s-55.872-52.12-55.872-52.12h-77.776
		c0,0-55.872,0.624-55.872,52.128c0,51.192,0,48.624,0,48.624h189.52V511.976z"/>
</g>
</svg>